<svg width="16" height="16" viewBox="0 0 16 16" fill="none" xmlns="http://www.w3.org/2000/svg">
<path d="M2.66669 5.33329V3.99996C2.66669 3.26358 3.26364 2.66663 4.00002 2.66663H5.33335" stroke="#778888" stroke-width="1.4" stroke-linecap="round" stroke-linejoin="round"/>
<path d="M2.66669 10.6666V12C2.66669 12.7363 3.26364 13.3333 4.00002 13.3333H5.33335" stroke="#778888" stroke-width="1.4" stroke-linecap="round" stroke-linejoin="round"/>
<path d="M10.6667 2.66663H12C12.7364 2.66663 13.3334 3.26358 13.3334 3.99996V5.33329" stroke="#778888" stroke-width="1.4" stroke-linecap="round" stroke-linejoin="round"/>
<path d="M10.6667 13.3333H12C12.7364 13.3333 13.3334 12.7363 13.3334 12V10.6666" stroke="#778888" stroke-width="1.2" stroke-linecap="round" stroke-linejoin="round"/>
<rect x="5.33331" y="7.33337" width="5.33333" height="3.33333" rx="1" stroke="#778888" stroke-width="1.4" stroke-linecap="round" stroke-linejoin="round"/>
<path d="M6.66669 7.33329V5.99996C6.66669 5.26358 7.26364 4.66663 8.00002 4.66663C8.7364 4.66663 9.33335 5.26358 9.33335 5.99996V7.33329" stroke="#778888" stroke-width="1.2" stroke-linecap="round" stroke-linejoin="round"/>
</svg>
